<?xml version="1.0" standalone="no"?>
<!DOCTYPE svg PUBLIC "-//W3C//DTD SVG 20010904//EN"
 "http://www.w3.org/TR/2001/REC-SVG-20010904/DTD/svg10.dtd">
<svg version="1.0" xmlns="http://www.w3.org/2000/svg"
 width="176.000000pt" height="176.000000pt" viewBox="0 0 176.000000 176.000000"
 preserveAspectRatio="xMidYMid meet">
<metadata>
Created by potrace 1.11, written by Peter Selinger 2001-2013
</metadata>
<g transform="translate(0.000000,176.000000) scale(0.100000,-0.100000)"
fill="#000000" stroke="none">
<path d="M650 1438 c-57 -39 -75 -72 -75 -138 0 -65 19 -100 73 -135 35 -22
37 -34 47 -201 l6 -101 -58 19 c-82 28 -183 33 -273 14 l-74 -16 -26 24 c-58
54 -127 62 -195 21 -72 -42 -96 -134 -56 -213 37 -73 148 -105 217 -63 30 18
32 18 100 -3 179 -57 284 -155 284 -264 0 -43 26 -78 64 -88 16 -4 56 7 113
30 139 55 210 69 368 70 77 1 147 5 157 10 33 15 41 59 24 129 -20 80 -21 218
-1 284 16 53 81 137 115 148 13 4 30 -1 46 -14 40 -31 103 -37 156 -13 88 38
121 137 76 221 -29 54 -76 81 -141 81 -55 0 -96 -18 -125 -55 -11 -14 -30 -25
-44 -25 -93 0 -266 -78 -342 -155 l-52 -53 -82 134 c-73 118 -81 136 -71 155
17 32 6 121 -19 156 -45 63 -149 83 -212 41z"/>
</g>
</svg>
