<svg xmlns="http://www.w3.org/2000/svg" viewBox="0 0 67.68 75.62"><path class="icon-color" d="M437.61 290.65a3.76 3.76 0 0 0-3.76 3.76v11.28h3.76v33.84a3.76 3.76 0 0 0 3.76 3.76h22.56v-48.88a3.76 3.76 0 0 0-3.76-3.76h-22.56zM471.45 294.41v48.88h22.55a3.76 3.76 0 0 0 3.76-3.76v-33.84h3.76v-11.28a3.76 3.76 0 0 0-3.76-3.76h-22.55a3.76 3.76 0 0 0-3.76 3.76zM482.73 290.64a9.4 9.4 0 0 0 0-18.8 18.56 18.56 0 0 0-8.4 2.07l.83-5-7.42-1.22-.74 4.74a15 15 0 0 0-10.55-4.34 9.41 9.41 0 0 0-9.4 9.4 4.55 4.55 0 0 0 .42 2l-2.3-.11a37.63 37.63 0 0 0-8.35.93l1.66 7.33a30.36 30.36 0 0 1 16.5 1c.65.64 1.35 1.31 2.11 2h25.68zm-18.8-6.21a37.72 37.72 0 0 0-4.85-2.36 38.33 38.33 0 0 1-4.49-5 1.88 1.88 0 0 1 1.82-1.41 7.53 7.53 0 0 1 7.52 7.52v1.31zm18.8-5.07a1.73 1.73 0 0 1 1.27.55 1.88 1.88 0 0 1 0 2.66 1.8 1.8 0 0 1-1.27.55 63.09 63.09 0 0 0-8.84.53 11.27 11.27 0 0 1 8.84-4.28z" transform="translate(-433.85 -267.67)"/></svg>
