<svg xmlns="http://www.w3.org/2000/svg" viewBox="0 0 87 77"><path id="_Slice_" class="cls-1" d="M0 0h86v77h-86z"/><circle class="cls-2" cx="75" cy="16.9" r="7.5"/><path class="cls-2" d="M81.7 20.28l4.3 7.12-5-1-2 5-3.43-7.02m-7.27-4.1l-4.3 7.12 5-1 2 5 3.43-7.02"/><path class="cls-3" d="M306 410.77a15.39 15.39 0 1 1 15.39-15.39 15.41 15.41 0 0 1-15.39 15.39zm0-24.62a9.23 9.23 0 1 0 9.23 9.23 9.24 9.24 0 0 0-9.23-9.23zm4.55 46.13h-9a3.08 3.08 0 0 1-3.05-2.68l-.9-7a28.25 28.25 0 0 1-4.76-2l-5.64 4.25a3.07 3.07 0 0 1-4-.27l-6.27-6.22a3.08 3.08 0 0 1-.32-4l4.18-5.73a28.22 28.22 0 0 1-2-4.93l-6.9-.86a3.08 3.08 0 0 1-2.7-3.05v-9a3.08 3.08 0 0 1 2.69-3.05l7-.88a28.2 28.2 0 0 1 2-4.87l-4.3-5.51a3.08 3.08 0 0 1 .24-4.06l6.23-6.27a3.08 3.08 0 0 1 4-.28l5.66 4.3a28.44 28.44 0 0 1 4.88-2l.92-7.09a3.08 3.08 0 0 1 3.05-2.68h9a3.08 3.08 0 0 1 3.06 2.7l.86 7.07a28.45 28.45 0 0 1 4.71 1.94l5.71-4.35a3.08 3.08 0 0 1 4 .26l6.27 6.23a3.08 3.08 0 0 1 .29 4l-4.25 5.75a28.27 28.27 0 0 1 2.06 4.89l7 .92a3.08 3.08 0 0 1 2.68 3.05v9a3.08 3.08 0 0 1-2.68 3.05l-7 .91a28.16 28.16 0 0 1-2 4.78l4.27 5.6a3.08 3.08 0 0 1-.26 4l-6.23 6.27a3.08 3.08 0 0 1-4 .31l-5.74-4.22a28.21 28.21 0 0 1-4.85 2l-.93 7a3.08 3.08 0 0 1-2.98 2.72zm-6.32-6.16h3.63l.85-6.35a3.08 3.08 0 0 1 2.36-2.59 22.25 22.25 0 0 0 6.88-2.86 3.08 3.08 0 0 1 3.46.13l5.22 3.84 2.46-2.48-3.88-5.09a3.08 3.08 0 0 1-.16-3.5 22.12 22.12 0 0 0 2.84-6.85 3.08 3.08 0 0 1 2.6-2.37l6.34-.83v-3.63l-6.37-.83a3.08 3.08 0 0 1-2.6-2.36 22.14 22.14 0 0 0-2.92-6.93 3.08 3.08 0 0 1 .13-3.51l3.89-5.17-2.46-2.45-5.19 4a3.08 3.08 0 0 1-3.48.17 22.28 22.28 0 0 0-6.83-2.8 3.08 3.08 0 0 1-2.38-2.63l-.79-6.42h-3.6l-.84 6.45a3.08 3.08 0 0 1-2.37 2.6 22.28 22.28 0 0 0-6.95 2.88 3.07 3.07 0 0 1-3.5-.15l-5.14-3.91-2.43 2.38 3.92 5a3.08 3.08 0 0 1 .17 3.55 22.08 22.08 0 0 0-2.92 6.95 3.08 3.08 0 0 1-2.61 2.36l-6.31.8v3.6l6.26.78a3.07 3.07 0 0 1 2.62 2.38 22.17 22.17 0 0 0 2.88 7 3.08 3.08 0 0 1-.12 3.46l-3.81 5.21 2.5 2.48 5.12-3.87a3.07 3.07 0 0 1 3.48-.16 22.23 22.23 0 0 0 6.84 2.81 3.08 3.08 0 0 1 2.37 2.61z" transform="translate(-263 -357)"/></svg>
