<svg xmlns="http://www.w3.org/2000/svg" viewBox="0 0 20 15.56"><defs><style>.cls-1{fill:#00a553;}</style></defs><title>smile_active</title><path class="cls-1" d="M38.56 417.92a1.11 1.11 0 0 1-1.11-1.11 1.11 1.11 0 1 0-2.22 0 1.11 1.11 0 0 1-2.22 0 3.33 3.33 0 1 1 6.67 0 1.11 1.11 0 0 1-1.12 1.11zM36.33 414.58a3.34 3.34 0 0 1 3.25 2.62 1.1 1.1 0 0 0 .08-.4 3.33 3.33 0 1 0-6.67 0 1.11 1.11 0 0 0 .08.4 3.34 3.34 0 0 1 3.26-2.62zM51.89 417.92a1.11 1.11 0 0 1-1.11-1.11 1.11 1.11 0 1 0-2.22 0 1.11 1.11 0 0 1-2.22 0 3.33 3.33 0 1 1 6.67 0 1.11 1.11 0 0 1-1.12 1.11zM49.67 414.58a3.34 3.34 0 0 1 3.25 2.62 1.1 1.1 0 0 0 .08-.4 3.33 3.33 0 1 0-6.67 0 1.11 1.11 0 0 0 .08.4 3.34 3.34 0 0 1 3.26-2.62zM49.06 422.36h-12.12a.58.58 0 0 0-.61.56 6.41 6.41 0 0 0 6.67 6.08 6.41 6.41 0 0 0 6.67-6.11.58.58 0 0 0-.61-.53zM49.62 423.47a5.08 5.08 0 0 0 0-.56.58.58 0 0 0-.61-.56h-12.07a.58.58 0 0 0-.61.56 5.08 5.08 0 0 0 0 .56h13.29z" transform="translate(-33 -413.47)"/></svg>